<?xml version="1.0" encoding="UTF-8"?>
<svg id="Layer_2" xmlns="http://www.w3.org/2000/svg" viewBox="0 0 2672.99 1110.97">
  <defs>
    <style>
      .cls-1 {
        fill: #fff;
      }

      .cls-2 {
        fill: none;
        stroke: #fff;
        stroke-linecap: round;
        stroke-linejoin: round;
        stroke-width: 35.4px;
      }
    </style>
  </defs>
  <g id="Layer_1-2" data-name="Layer_1">
    <g id="Layer_1-2">
      <g>
        <g>
          <path class="cls-1" d="M1210.37,341.38c-4.34,0-6.9-2.57-6.9-6.9V99.31h-91.34c-4.34,0-6.46-2.57-6.46-6.46V30.45c0-4.34,2.12-6.9,6.46-6.9h263.32c4.34,0,6.9,2.57,6.9,6.9v62.4c0,3.89-2.57,6.46-6.9,6.46h-90.99v235.17c0,4.34-2.57,6.9-6.9,6.9h-67.18Z"/>
          <path class="cls-1" d="M1423.41,211.89V30.45c0-4.34,2.57-6.9,6.46-6.9h67.53c3.89,0,6.46,2.57,6.46,6.9v165.42c0,50.27,22.92,73.2,56.73,73.2s56.29-22.92,56.29-73.2V30.45c0-4.34,3.01-6.9,6.9-6.9h67.09c4.34,0,6.9,2.57,6.9,6.9v181.44c0,100.9-70.98,135.51-137.28,135.51s-137.28-34.61-137.28-135.51h.18Z"/>
          <path class="cls-1" d="M1843.92,341.38c-4.34,0-6.9-2.57-6.9-6.9V99.31h-91.34c-4.34,0-6.46-2.57-6.46-6.46V30.45c0-4.34,2.12-6.9,6.46-6.9h263.32c4.34,0,6.9,2.57,6.9,6.9v62.4c0,3.89-2.57,6.46-6.9,6.46h-90.9v235.17c0,4.34-2.57,6.9-6.9,6.9h-67.27Z"/>
          <path class="cls-1" d="M2034.92,182.42c0-98.33,69.75-164.98,164.1-164.98s164.1,66.74,164.1,164.98-69.75,164.98-164.1,164.98-164.1-66.74-164.1-164.98ZM2279.65,182.42c0-51.07-32.48-86.65-80.54-86.65s-80.54,35.49-80.54,86.65,32.48,86.65,80.54,86.65,80.54-35.49,80.54-86.65Z"/>
          <path class="cls-1" d="M2422.95,341.38c-4.34,0-6.9-2.57-6.9-6.9V30.45c0-4.34,2.57-6.9,6.9-6.9h106.12c92.23,0,133.38,39.39,133.38,114.35s-13.9,73.64-43.72,93.11l52.84,102.23c2.57,4.78,0,8.23-5.22,8.23h-74.08c-3.89,0-6.46-1.77-7.79-5.22l-40.27-84.44c-4.78.44-10,.44-15.14.44h-33.37v82.31c0,4.34-2.57,6.9-6.9,6.9h-65.85v-.09ZM2495.71,91.08v93.55h32.04c33.37,0,52.4-13.01,52.4-46.73s-19.03-46.73-52.4-46.73h-32.04v-.09Z"/>
        </g>
        <g>
          <path class="cls-1" d="M1103.27,635.85c-1.24-4.25.44-7.26,4.69-8.59l59.48-14.52c3.81-.89,6.82.44,8.59,4.25,9.38,22.66,25.23,32.04,50.45,32.04s34.61-6.82,34.61-21.42-13.72-23.54-39.74-32.93l-32.48-11.51c-47.88-16.64-78.24-47.88-78.24-94.53s50.01-95.41,112.5-95.41,94.53,23.99,112.05,77.45c1.68,4.25-.44,7.7-4.25,8.59l-62.49,16.64c-4.25,1.24-6.82-.44-8.59-4.25-9.38-22.22-22.22-28.23-38.06-28.23s-29.92,7.7-29.92,20.98,11.51,22.22,43.64,32.93l23.54,7.7c55.58,18.85,82.93,47.09,82.93,98.78s-48.33,95.41-117.63,95.41-103.47-29.47-121.08-83.38h0Z"/>
          <path class="cls-1" d="M1389.87,713.21c-4.25,0-6.82-2.57-6.82-6.82v-300.22c0-4.25,2.57-6.82,6.82-6.82h69.3c3.45,0,6.02,1.24,7.7,4.69l94.53,157.37,91.96-157.37c1.68-3.01,4.25-4.69,7.7-4.69h67.98c4.25,0,6.82,2.57,6.82,6.82v300.22c0,4.25-2.57,6.82-6.82,6.82h-62.84c-4.25,0-6.82-2.57-6.82-6.82v-178.35l-72.31,120.64c-1.68,3.45-4.25,4.69-7.7,4.69h-39.74c-3.45,0-6.02-1.24-7.7-4.69l-72.31-117.63v175.34c0,4.25-2.57,6.82-6.82,6.82h-62.93,0Z"/>
          <path class="cls-1" d="M1778.25,713.21c-5.13,0-7.26-3.45-5.58-7.7l123.65-301.11c1.24-3.45,4.25-5.13,7.7-5.13h53.9c3.89,0,6.37,1.68,7.7,5.13l123.65,301.11c1.68,4.25-.44,7.7-5.13,7.7h-71.87c-3.89,0-6.37-1.68-7.7-5.58l-17.08-48.33h-114.18l-17.08,48.33c-1.24,3.81-3.81,5.58-7.7,5.58h-70.28ZM1964.29,594.34l-34.61-96.65-33.81,96.65h68.42Z"/>
          <path class="cls-1" d="M2132.82,713.21c-4.25,0-6.82-2.57-6.82-6.82v-300.22c0-4.25,2.57-6.82,6.82-6.82h104.8c91.08,0,131.7,38.94,131.7,112.94s-13.72,72.67-43.19,91.96l52.22,100.9c2.57,4.69,0,8.14-5.13,8.14h-73.11c-3.89,0-6.37-1.68-7.7-5.13l-39.74-83.38c-4.69.44-9.82.44-14.96.44h-32.93v81.25c0,4.25-2.57,6.82-6.82,6.82h-65.14v-.09ZM2204.69,466v92.4h31.69c32.93,0,51.78-12.83,51.78-46.2s-18.85-46.2-51.78-46.2h-31.69Z"/>
          <path class="cls-1" d="M2503.23,713.21c-4.25,0-6.82-2.57-6.82-6.82v-232.25h-90.28c-4.25,0-6.37-2.57-6.37-6.37v-61.6c0-4.25,2.12-6.82,6.37-6.82h260.04c4.25,0,6.82,2.57,6.82,6.82v61.6c0,3.81-2.57,6.37-6.82,6.37h-89.84v232.25c0,4.25-2.57,6.82-6.82,6.82h-66.29,0Z"/>
        </g>
        <g>
          <path class="cls-1" d="M1722.22,928.55c0-98.33,69.75-164.98,164.1-164.98s164.1,66.74,164.1,164.98-69.75,164.98-164.1,164.98-164.1-66.74-164.1-164.98h0ZM1966.95,928.55c0-51.07-32.48-86.65-80.54-86.65s-80.54,35.49-80.54,86.65,32.48,86.65,80.54,86.65,80.54-35.49,80.54-86.65Z"/>
          <path class="cls-1" d="M2110.25,1087.52c-4.34,0-6.9-2.57-6.9-6.9v-304.03c0-4.34,2.57-6.9,6.9-6.9h70.19c3.89,0,6.02,1.77,8.23,4.78l113.47,188.79v-186.67c0-4.34,2.57-6.9,6.9-6.9h63.64c4.34,0,6.9,2.57,6.9,6.9v304.03c0,4.34-2.57,6.9-6.9,6.9h-69.75c-3.89,0-6.46-1.77-8.23-4.78l-113.91-189.68v187.55c0,4.34-2.57,6.9-6.9,6.9h-63.64Z"/>
          <path class="cls-1" d="M2448.09,1087.52c-4.34,0-6.9-2.57-6.9-6.9v-304.03c0-4.34,2.57-6.9,6.9-6.9h209.15c3.89,0,6.9,2.57,6.9,6.9v55.85c0,4.34-3.01,6.9-6.9,6.9h-135.95v51.96h119.93c4.34,0,6.9,2.57,6.9,6.9v53.73c0,4.34-2.57,6.9-6.9,6.9h-119.93v58.86h141.17c3.89,0,6.9,2.57,6.9,6.9v55.85c0,4.34-3.01,6.9-6.9,6.9h-214.37v.18h0Z"/>
        </g>
        <path class="cls-1" d="M1107.34,969.89c-4.34,0-6.9-2.57-6.9-6.9v-55.41c0-3.89,2.57-6.46,6.9-6.46l555.58-6.9c4.34,0,6.9,2.57,6.9,6.46v55.41c0,4.34-2.57,6.9-6.9,6.9l-555.58,6.9h0Z"/>
      </g>
      <g>
        <path class="cls-2" d="M291.82,191.18h664.35v902.09H171.35c-84.88,0-153.65-68.77-153.65-153.65V191.18h113.91"/>
        <path class="cls-2" d="M131.61,191.18H17.7v-19.83c0-23.99,5.49-46.64,15.31-66.91C57.89,53.11,110.46,17.7,171.35,17.7h784.81v173.48H291.82"/>
        <circle class="cls-1" cx="704.27" cy="614.17" r="44.7"/>
        <circle class="cls-1" cx="269.51" cy="614.17" r="44.7"/>
        <path class="cls-2" d="M477.78,786.85c39.48,10.36,68.86,0,88.24-30.98"/>
        <line class="cls-2" x1="956.17" y1="104.44" x2="33.01" y2="104.44"/>
        <polygon class="cls-2" points="291.82 339.43 211.71 281.2 131.61 339.43 131.61 104.44 291.82 104.44 291.82 339.43"/>
        <circle class="cls-2" cx="269.51" cy="614.17" r="184.72"/>
        <circle class="cls-2" cx="704.27" cy="614.17" r="184.72" transform="translate(-228.01 677.88) rotate(-45)"/>
        <line class="cls-2" x1="454.23" y1="614.17" x2="519.64" y2="614.17"/>
      </g>
    </g>
  </g>
</svg>